<svg width="25" height="25" viewBox="0 0 25 25" fill="none" xmlns="http://www.w3.org/2000/svg">
<mask id="mask0_116_7" style="mask-type:alpha" maskUnits="userSpaceOnUse" x="0" y="0" width="25" height="25">
<rect x="0.853638" y="0.146339" width="24" height="24" fill="#D9D9D9"/>
</mask>
<g mask="url(#mask0_116_7)">
<path d="M9.85364 18.1463C9.30364 18.1463 8.8328 17.9505 8.44114 17.5588C8.04947 17.1672 7.85364 16.6963 7.85364 16.1463V4.14634C7.85364 3.59634 8.04947 3.12551 8.44114 2.73384C8.8328 2.34217 9.30364 2.14634 9.85364 2.14634H18.8536C19.4036 2.14634 19.8745 2.34217 20.2661 2.73384C20.6578 3.12551 20.8536 3.59634 20.8536 4.14634V16.1463C20.8536 16.6963 20.6578 17.1672 20.2661 17.5588C19.8745 17.9505 19.4036 18.1463 18.8536 18.1463H9.85364ZM9.85364 16.1463H18.8536V4.14634H9.85364V16.1463ZM5.85364 22.1463C5.30364 22.1463 4.8328 21.9505 4.44114 21.5588C4.04947 21.1672 3.85364 20.6963 3.85364 20.1463V7.14634C3.85364 6.86301 3.94947 6.62551 4.14114 6.43384C4.3328 6.24217 4.5703 6.14634 4.85364 6.14634C5.13697 6.14634 5.37447 6.24217 5.56614 6.43384C5.7578 6.62551 5.85364 6.86301 5.85364 7.14634V20.1463H15.8536C16.137 20.1463 16.3745 20.2422 16.5661 20.4338C16.7578 20.6255 16.8536 20.863 16.8536 21.1463C16.8536 21.4297 16.7578 21.6672 16.5661 21.8588C16.3745 22.0505 16.137 22.1463 15.8536 22.1463H5.85364Z" fill="#888888"/>
</g>
</svg>
