<svg width="24" height="24" viewBox="0 0 24 24" fill="none" xmlns="http://www.w3.org/2000/svg">
<mask id="mask0_728_1003" style="mask-type:alpha" maskUnits="userSpaceOnUse" x="0" y="0" width="24" height="24">
<rect width="24" height="24" fill="#D9D9D9"/>
</mask>
<g mask="url(#mask0_728_1003)">
<path d="M9.54996 15.15L18.025 6.675C18.225 6.475 18.4625 6.375 18.7375 6.375C19.0125 6.375 19.25 6.475 19.45 6.675C19.65 6.875 19.75 7.1125 19.75 7.3875C19.75 7.6625 19.65 7.9 19.45 8.1L10.25 17.3C10.05 17.5 9.81663 17.6 9.54996 17.6C9.2833 17.6 9.04996 17.5 8.84996 17.3L4.54996 13C4.34996 12.8 4.25413 12.5625 4.26246 12.2875C4.2708 12.0125 4.37496 11.775 4.57496 11.575C4.77496 11.375 5.01246 11.275 5.28746 11.275C5.56246 11.275 5.79996 11.375 5.99996 11.575L9.54996 15.15Z" fill="#888888"/>
</g>
</svg>
