<svg width="100" height="100" viewBox="0 0 100 100" fill="none" xmlns="http://www.w3.org/2000/svg">
    <g clip-path="url(#clip0_1_3)">
        <mask id="mask0_1_3" style="mask-type:alpha" maskUnits="userSpaceOnUse" x="-10" y="-10" width="120" height="120">
            <rect x="-10" y="-10" width="120" height="120" rx="4" fill="#D9D9D9"/>
        </mask>
        <g mask="url(#mask0_1_3)">
            <path d="M9 95C6.79086 95 5 93.2091 5 91V9C5 6.79086 6.79086 5 9 5H91C93.2091 5 95 6.79086 95 9V91C95 93.2091 93.2091 95 91 95H9ZM15 32C15 33.6569 16.3431 35 18 35H82C83.6569 35 85 33.6569 85 32V18C85 16.3431 83.6569 15 82 15H18C16.3431 15 15 16.3431 15 18V32ZM41.625 58C41.625 59.1046 42.5204 60 43.625 60H56.375C57.4796 60 58.375 59.1046 58.375 58V47C58.375 45.8954 57.4796 45 56.375 45H43.625C42.5204 45 41.625 45.8954 41.625 47V58ZM41.625 83C41.625 84.1046 42.5204 85 43.625 85H56.375C57.4796 85 58.375 84.1046 58.375 83V72C58.375 70.8954 57.4796 70 56.375 70H43.625C42.5204 70 41.625 70.8954 41.625 72V83ZM15 58C15 59.1046 15.8954 60 17 60H29.625C30.7296 60 31.625 59.1046 31.625 58V47C31.625 45.8954 30.7296 45 29.625 45H17C15.8954 45 15 45.8954 15 47V58ZM68.375 58C68.375 59.1046 69.2704 60 70.375 60H83C84.1046 60 85 59.1046 85 58V47C85 45.8954 84.1046 45 83 45H70.375C69.2704 45 68.375 45.8954 68.375 47V58ZM15 83C15 84.1046 15.8954 85 17 85H29.625C30.7296 85 31.625 84.1046 31.625 83V72C31.625 70.8954 30.7296 70 29.625 70H17C15.8954 70 15 70.8954 15 72V83ZM68.375 83C68.375 84.1046 69.2704 85 70.375 85H83C84.1046 85 85 84.1046 85 83V72C85 70.8954 84.1046 70 83 70H70.375C69.2704 70 68.375 70.8954 68.375 72V83Z"/>
        </g>
    </g>
    <defs>
        <clipPath id="clip0_1_3">
            <rect width="100" height="100" fill="white"/>
        </clipPath>
    </defs>
    <style>
        path {
            fill: #888888;
        }
    </style>
</svg>
