<svg width="414" height="414" viewBox="0 0 414 414" fill="none" xmlns="http://www.w3.org/2000/svg">
	<path
		d="M370.513 129.941C370.764 133.238 370.764 136.536 370.764 139.864C370.764 241.267 285.96 358.216 130.894 358.216V358.155C85.087 358.216 40.2314 346.272 1.66934 323.751C8.33007 324.481 15.0242 324.846 21.735 324.861C59.6961 324.891 96.5722 313.297 126.437 291.946C90.3622 291.323 58.7279 269.912 47.6768 238.653C60.3138 240.872 73.3347 240.416 85.7381 237.331C46.4081 230.098 18.1125 198.642 18.1125 162.111C18.1125 161.776 18.1125 161.457 18.1125 161.138C29.8314 167.08 42.9525 170.377 56.3741 170.742C19.3311 148.206 7.91273 103.348 30.2821 68.275C73.0843 116.219 136.236 145.365 204.029 148.45C197.234 121.796 206.516 93.8652 228.418 75.1285C262.372 46.0736 315.775 47.5628 347.693 78.4564C366.574 75.0677 384.669 68.7613 401.229 59.826C394.936 77.5902 381.765 92.6799 364.17 102.269C380.88 100.476 397.206 96.403 412.581 90.1878C401.263 105.627 387.007 119.076 370.513 129.941Z"
		fill="#1d9bf0" />
</svg>